<svg width="84" height="84" viewBox="0 0 84 84" fill="none" xmlns="http://www.w3.org/2000/svg">
<path d="M58.8759 17.9704C56.3101 15.0288 54.7677 11.1932 54.7677 7H51.5526M58.8759 17.9704C61.2143 20.6522 64.3804 22.6026 67.9858 23.3663C69.1061 23.6101 70.2751 23.7403 71.4931 23.7403V35.7668C65.2575 35.7668 59.4762 33.768 54.767 30.3874V54.8474C54.767 67.0694 44.8287 77 32.6335 77C26.2515 77 20.4867 74.2693 16.4432 69.93C12.757 65.9645 10.4998 60.6658 10.4998 54.8474C10.4998 42.8043 20.1457 32.9878 32.0976 32.7278M58.8759 17.9704C58.8136 17.9297 58.7514 17.8885 58.6894 17.847M24.4493 60.7309C23.2476 59.0733 22.5331 57.0419 22.5331 54.8313C22.5331 49.2569 27.0637 44.7223 32.6338 44.7223C33.673 44.7223 34.6798 44.9008 35.6216 45.1934V32.9067C34.6472 32.7766 33.6568 32.6952 32.6338 32.6952C32.455 32.6952 31.0162 32.7909 30.8376 32.7909M51.5354 7H42.734L42.7179 55.2212C42.5229 60.6172 38.0734 64.9568 32.6335 64.9568C29.2557 64.9568 26.284 63.2828 24.4328 60.7474" stroke="white" stroke-width="3.5" stroke-linejoin="round"/>
</svg>
