<svg width="32" height="32" viewBox="0 0 32 32" fill="none" xmlns="http://www.w3.org/2000/svg">
<path d="M28.9961 11.459C27.2474 5.88535 21.8771 1.96878 15.9678 2C8.62284 1.86713 2.20729 8.32853 2.33301 15.6572C2.21005 22.9448 8.54917 29.3657 15.8311 29.3145C16.8951 29.4453 17.4197 28.0057 16.4971 27.4443C14.4746 25.6084 12.957 23.3027 12.1035 20.7656C12.0797 20.6962 12.0637 20.6245 12.0409 20.5547H15.8926C16.4453 20.5547 16.8926 20.1074 16.8926 19.5547C16.8926 19.002 16.4453 18.5547 15.8926 18.5547H11.5331C11.3576 17.6076 11.2598 16.6429 11.2598 15.6641C11.2598 14.6793 11.3577 13.7103 11.5336 12.7598H20.4079C20.4829 13.1872 20.5469 13.6206 20.5869 14.0625C20.6348 14.5811 21.0703 14.9717 21.582 14.9717C21.6123 14.9717 21.6426 14.9707 21.6738 14.9678C22.2236 14.918 22.6289 14.4307 22.5791 13.8809C22.5446 13.5032 22.4966 13.1293 22.4395 12.7598H27.2917C27.5372 13.6943 27.667 14.6647 27.667 15.6572C27.667 16.5654 27.5576 17.4922 27.3428 18.4111C27.2168 18.9482 27.5508 19.4863 28.0889 19.6123C28.623 19.7354 29.1641 19.4043 29.29 18.8662C29.54 17.7988 29.667 16.7188 29.667 15.6572C29.667 14.2061 29.4395 12.7881 28.9961 11.459ZM25.1025 8.375C25.6979 9.10956 26.1837 9.90985 26.5748 10.7598H21.9885C21.9101 10.4798 21.8472 10.2071 21.752 9.9209C21.0648 7.87439 20.0034 5.97357 18.6463 4.30456C21.1743 4.89069 23.4446 6.30371 25.1025 8.375ZM6.90039 8.37012C8.54846 6.31183 10.8001 4.90686 13.3299 4.31604C11.9655 5.97467 10.8998 7.86432 10.2109 9.90039C10.114 10.1832 10.0381 10.4725 9.95581 10.7598H5.42438C5.81476 9.91211 6.30176 9.10944 6.90039 8.37012ZM10.21 21.4092C10.8933 23.4399 11.962 25.335 13.3367 27.0063C10.8207 26.4182 8.55426 25.0062 6.89746 22.9404C6.30152 22.2048 5.81616 21.4043 5.42523 20.5547H9.95606C10.038 20.8403 10.1134 21.128 10.21 21.4092ZM9.49439 18.5547H4.70825C4.46283 17.6202 4.33301 16.6497 4.33301 15.6572C4.33301 14.6677 4.46204 13.6997 4.7085 12.7598H9.49481C9.33942 13.7123 9.25977 14.6824 9.25977 15.6641C9.25977 16.6401 9.33936 17.6058 9.49439 18.5547ZM12.1045 10.5449C12.895 8.2066 14.2371 6.08289 16.0018 4.34759C17.7443 6.09106 19.071 8.21985 19.8555 10.5557C19.8788 10.6254 19.8908 10.6904 19.913 10.7598H12.0407C12.0639 10.6887 12.0803 10.6157 12.1045 10.5449Z" fill="white"/>
<path d="M28.2725 20.9609L20.8691 15.7774C20.334 15.4033 19.6621 15.3457 19.0732 15.6201C18.4824 15.8955 18.0957 16.4473 18.0381 17.0986L17.251 26.1016C17.1816 26.8906 17.6074 27.6026 18.335 27.9151C19.0635 28.2305 19.8701 28.0479 20.3965 27.4561L20.9697 26.8096L21.1686 27.2363C21.1688 27.2366 21.1688 27.237 21.1689 27.2373C21.1688 27.2371 21.1691 27.2376 21.1689 27.2373L21.9717 28.959C22.2773 29.6143 22.9287 30 23.6094 30C23.8643 30 24.123 29.9453 24.3691 29.8311L26.5547 28.8115C26.9912 28.6084 27.3223 28.2461 27.4873 27.793C27.6514 27.3408 27.6299 26.8506 27.4268 26.4141L26.4248 24.2656L27.2881 24.2422C28.0801 24.2197 28.7383 23.7158 28.9658 22.957C29.1934 22.1983 28.9209 21.4151 28.2725 20.9609Z" fill="white"/>
</svg>
